/* XPM */
static char *_a92d65fb7f64c57c38f74deb04d7617I0RlNVTMBCLkMBfV[] = {
/* columns rows colors chars-per-pixel */
"64 64 39 1 ",
"  c #070711",
". c #080812",
"X c #0A0A12",
"o c #0B0B13",
"O c #0B0C11",
"+ c #0C0D12",
"@ c #080B14",
"# c #0A0A14",
"$ c #0A0917",
"% c #0A0D16",
"& c #0D0C14",
"* c #0C0C16",
"= c #070E18",
"- c #0D0B18",
"; c #0A0C18",
": c #0C0C18",
"> c #0E0E18",
", c #0F0F1B",
"< c #100F15",
"1 c #100F17",
"2 c #110F1A",
"3 c #071017",
"4 c #091016",
"5 c #0C1117",
"6 c #061019",
"7 c #0A1119",
"8 c #0A111B",
"9 c #0E111A",
"0 c #0E121B",
"q c #0F121B",
"w c #101115",
"e c #111016",
"r c #111018",
"t c #131218",
"y c #10131A",
"u c #14131B",
"i c #131419",
"p c #13131D",
"a c #14141C",
/* pixels */
"####*#****#****##&#%#&&-**X;#**##>*#*#####################>#####",
"###*#*#**#**##**%#-#-##%##%%#########*##########################",
"#**#####*####**##-###############XX###X##  ## ##################",
"#*#####***#######&%#######XX##>### XXXX# ### ####### #X# ###>#-#",
"#>>*###**##*#***%#&#%######-#>#**#*####:#>#####X ####-# #### ##:",
"***#***##*##***##>#-#-#>**&X##*##*#*#>###>#####X################",
"#*#**#****#****#-###&###X#*X#*####**#>>############ #%#########:",
"##**####*####**#########X#oX##################### ##############",
"###*########***##############XXX*####X################ # #######",
"*#***#****####*####%>>#>*#*####*+#X*&*&###>##*#####>#######>####",
"**#*#*##>#*#*####-###>##>#>#*##*#*#***#+#>##*#*#>####.#X########",
"#**#*###*##***#*>##>###&>##*#*#X*#*#**#####>#*#*##############X#",
"#######**#####*###>#>#########XX###*#*#X###*##**##############.#",
"###*####*#####*##########X #X# XX*#X## X ############# #.### ##.",
"#***#**###*XX*++>#####>#######X*#X##X####*#*#########:##########",
">#***#**#**#X**###>#>###>####XX#XX########*#####################",
"#**>#***##***#**#*##**#*>############.###############>########&#",
"##*>#####*##X*X#######*######XXXXXX########>##################:#",
"****###*####X+XX##X##########X##XXX##############.#.### ######$ ",
"**#******###*##**###**##>>###>###########>##.###.#######.###@@##",
"**#-***>>#*####*>##*#*#*### #>#>################################",
"*#>&*****#>#***##>*#*#*#>#######################################",
"**+&+***>#**#*****###*########### ##.###############.#.##.####@X",
"*+*+*+*+**##*#*#*#**############## ##.###.###.# #.# #.#.### . # ",
"**>>**>*#*#*#>**#*#*#*##>#*###### ##>###################.#######",
"#**>*******#***#*#*##**##*#*>#*#;.####>#####.###################",
"+***##Xo#*###**#*##>*##**####*####################>######.######",
"***>-#&**#*##**##*###*#######*#####X####################.#######",
"***1*****#*##*###*#*########################.##################>",
"***+****>**#***#*#***##**####*#*##:>##>###-############>########",
"*************#**##>*#*####>>*#*###>#>###>#######################",
"******o**##########**#*##*######>####>#######.#>################",
"%o#>>##>>#########*##*#####*############*#*########*# ###XXXX###",
"o>>>#>##>#>>>>*###>>>##>##>##>#*#########**#####*####:##XX%XX###",
"**>>>>>>>#>>#>**>####>>#>##>>>########>##*#*###########XX####X#X",
"**>r#>>>>>#>#>>#>#>#>##>#>#>#>###>###>##*#*####################X",
"++**:#>#>#>#>>#-##*#*#*#*#*>>>##>#>###>##########X ######## X###",
"+++e>>>###>>#>%&#*#*#*#*####>############### XX##X##XXXX#X##X ##",
"e**r#>#>#>>>>>*;*#>#>#>#############################X&#XXX&####:",
"r9rr>>>>>>>#>>*#>>#>#>##>>#>>>>##>###>###->####*#####%&########:",
"rrip%*2*>>>->>#-#*#**>>#>#>#>>######>####>##X*##>###>>####:##X#>",
"e9ee%**#-&&>>>>:X*%%###*###>>#>##>#######>#>*##*#####>######XXXo",
"eer9#&>*&1+e>2*>*&:%***##*###>##########X#>X#XX#############XXX%",
"5er9>p*18>&%>>r>&2:>**#>**#>###>>>#>#####**X+X#+#####-& ####XXXo",
"rr598=889398X85*>->>*r*>>####>#>>##>#>#>>##*XX##>###*o######X###",
"reer8,8=84838=98>>>%**>*>>>>##>##>>#>>>#>*******>##>########X###",
"rrrr9%863466368%%>>>>#***>**>X#>>>#>>>>>##**#*#+###############X",
"99ee89484%%9%3;;>#>>>>***>*X*o####>######**X##**>########## ## #",
"9arr>e952>9***>*&>>>>-:#>##:###%#####>###X###X####>#*########X##",
"rr9ieree91e*e52*&1->::::>:>->###>#>######>#>*#+X################",
"rqaarrrer>r1*99**e1o:->>::::>##&####>#>###:#+##>#####>#>#X######",
"rrraer*91e91*>pre111%##>##::#X###>>######>#&&########>######## #",
"r9pp5*r9e5*e9er%ee%81-*%>:>-&&##############>#####XX####XXXXXXXX",
"eei9rereeee4e5&1e95&&&+9>>>-&#&##>>#>##>#>>########XX*##XXXX XX#",
"qriqrrr9rreerr1erq1%>:;*#>#&->>>#>#>>#>#######>>>###X###XX#XX###",
"rrriirrpu999eee9rre98>;r>>2%>>>2>#>#####>#>#########X#*X########",
"rrree99ir99e5e>5eer09;;;&2*>>>>>>##############>########X ###>##",
"99r9e9rru5*221*1e5rr98r+&-+*>***>#>#>###########>##############:",
"2rrpr9rerrirr9reerpr99*%#>>>*X**####*###########################",
"irrarir9r99err>>>>***5e>1>>>>>#>>>>##>#>>>##>#>######>#>##>##:##",
"9euarrrprreeier>*>***9>>9>>>>>>>****>>#*>###>##>>>###>###>*%>#X%",
"r5rr9rrr9re15u5>9*1212**2#>9:>#%**#*#>*####>##############X#&X#%",
"rrra9er5eee52u2*5111*1*ep*&:%:>****#**#*#>#>######>##-#######XX*",
"rrarrprpirurrru52r1*1+55e%X:#>#*>>#>#***##>#######>#&##>#####X#X"
};
